# xmcd CD database file generated by OrangeCD 5.2
#
# Track frame offsets:
#	182
#	10870
#	21990
#	32315
#	45357
#	55597
#	67020
#	77312
#	88640
#	99032
#	112375
#	121472
#	133452
#	144495
#	157582
#	169225
#	182557
#	194212
#	205327
#	215040
#	229325
#	237915
#	248345
#	256947
#
# Disc length: 3574 seconds
#
# Revision: 0
# Processed by: cddbd v1.5.1PL0 Copyright (c) Steve Scherf et al.
# Submitted via: OrangeCD 5.2
#
DISCID=450df418
DTITLE=Various Artist - Battle Of The Groups Volume 1 and 2
DYEAR=1994
DGENRE=R&B Compilation
TTITLE0=The Isley Brothers - Everybody's Gonna Rock and Roll
TTITLE1=The Dubs - Be Sure My Love
TTITLE2=The Flamingos - At The Prom
TTITLE3=The Imperials - River Path 
TTITLE4=The Isley Brothers - Rockin' McDonald
TTITLE5=The Dubs - Is There A Love For Me
TTITLE6=The Isley Brothers - The Drag
TTITLE7=The Dubs - Chapel Of Dreams
TTITLE8=The Isley Brothers - I Wanna Know (Baby Will You Be Mine)
TTITLE9=The Flamingos - I'll Shed A Tear At Your Wedding
TTITLE10=The Dubs - Song In My Heart
TTITLE11=The Isley Brothers - My Love
TTITLE12=Little Anthony and The Imperials - I'm Alright
TTITLE13=The Flamingos - Lovers Never Say Goodbye
TTITLE14=The Chantels - Goodbye To Love
TTITLE15=The Imperials - So Near And Yet So Far
TTITLE16=The Flamingos - That Love Is You
TTITLE17=Little Anthony and The Imperials - A Prayer And A Juke Box
TTITLE18=Little Anthony and The Imperials - Shimmy Shimmy Ko-Ko Bop
TTITLE19=The Flamingos - Jump Children
TTITLE20=The Chantels - I'm Confession (That I Love You)
TTITLE21=The Dubs - Don't Ask Me To Be Lonely
TTITLE22=The Chantels - Never Let Go
TTITLE23=Little Anthony and The Imperials - I'm Still In Love With You
EXTD=
EXTT0=
EXTT1=
EXTT2=
EXTT3=
EXTT4=
EXTT5=
EXTT6=
EXTT7=
EXTT8=
EXTT9=
EXTT10=
EXTT11=
EXTT12=
EXTT13=
EXTT14=
EXTT15=
EXTT16=
EXTT17=
EXTT18=
EXTT19=
EXTT20=
EXTT21=
EXTT22=
EXTT23=
PLAYORDER=
